<svg width="178" height="40" viewBox="0 0 178 40" fill="none" xmlns="http://www.w3.org/2000/svg">
<g filter="url(#filter0_d)">
<path d="M44.8275 37L3.00001 37L14.2934 17.92L3.00001 0.999999L44.8275 0.999999L44.8275 37Z" fill="#DA7906"/>
<rect x="44.8275" y="1" width="131.966" height="36" fill="#DA7906"/>
</g>
<path d="M36.0469 18.6875H30.7422V24H29.7812V12.625H36.8281V13.4453H30.7422V17.8672H36.0469V18.6875ZM43.8281 22.9297C43.2656 23.7474 42.3672 24.1562 41.1328 24.1562C40.2318 24.1562 39.5469 23.8958 39.0781 23.375C38.6094 22.849 38.3698 22.0729 38.3594 21.0469V15.5469H39.2891V20.9297C39.2891 22.5391 39.9401 23.3438 41.2422 23.3438C42.5964 23.3438 43.4531 22.7839 43.8125 21.6641V15.5469H44.75V24H43.8438L43.8281 22.9297ZM48.6406 13.3828V15.5469H50.3906V16.3125H48.6406V21.9453C48.6406 22.4141 48.724 22.763 48.8906 22.9922C49.0625 23.2214 49.3464 23.3359 49.7422 23.3359C49.8984 23.3359 50.151 23.3099 50.5 23.2578L50.5391 24.0234C50.2943 24.112 49.9609 24.1562 49.5391 24.1562C48.8984 24.1562 48.4323 23.9714 48.1406 23.6016C47.849 23.2266 47.7031 22.6771 47.7031 21.9531V16.3125H46.1484V15.5469H47.7031V13.3828H48.6406ZM57.7656 22.9297C57.2031 23.7474 56.3047 24.1562 55.0703 24.1562C54.1693 24.1562 53.4844 23.8958 53.0156 23.375C52.5469 22.849 52.3073 22.0729 52.2969 21.0469V15.5469H53.2266V20.9297C53.2266 22.5391 53.8776 23.3438 55.1797 23.3438C56.5339 23.3438 57.3906 22.7839 57.75 21.6641V15.5469H58.6875V24H57.7812L57.7656 22.9297ZM65.0312 16.3438C64.8333 16.3073 64.6224 16.2891 64.3984 16.2891C63.8151 16.2891 63.3203 16.4531 62.9141 16.7812C62.513 17.1042 62.2266 17.5755 62.0547 18.1953V24H61.125V15.5469H62.0391L62.0547 16.8906C62.5495 15.8906 63.3438 15.3906 64.4375 15.3906C64.6979 15.3906 64.9036 15.4245 65.0547 15.4922L65.0312 16.3438ZM69.6328 24.1562C68.9141 24.1562 68.263 23.9792 67.6797 23.625C67.1016 23.2708 66.651 22.7786 66.3281 22.1484C66.0052 21.513 65.8438 20.8021 65.8438 20.0156V19.6797C65.8438 18.8672 66 18.1354 66.3125 17.4844C66.6302 16.8333 67.0703 16.3229 67.6328 15.9531C68.1953 15.5781 68.8047 15.3906 69.4609 15.3906C70.487 15.3906 71.2995 15.7422 71.8984 16.4453C72.5026 17.1432 72.8047 18.099 72.8047 19.3125V19.8359H66.7734V20.0156C66.7734 20.974 67.0469 21.7734 67.5938 22.4141C68.1458 23.0495 68.8385 23.3672 69.6719 23.3672C70.1719 23.3672 70.612 23.276 70.9922 23.0938C71.3776 22.9115 71.7266 22.6198 72.0391 22.2188L72.625 22.6641C71.9375 23.6589 70.9401 24.1562 69.6328 24.1562ZM69.4609 16.1875C68.7578 16.1875 68.1641 16.4453 67.6797 16.9609C67.2005 17.4766 66.9089 18.1693 66.8047 19.0391H71.875V18.9375C71.849 18.125 71.6172 17.4635 71.1797 16.9531C70.7422 16.4427 70.1693 16.1875 69.4609 16.1875ZM82.4219 16.3438C82.224 16.3073 82.013 16.2891 81.7891 16.2891C81.2057 16.2891 80.7109 16.4531 80.3047 16.7812C79.9036 17.1042 79.6172 17.5755 79.4453 18.1953V24H78.5156V15.5469H79.4297L79.4453 16.8906C79.9401 15.8906 80.7344 15.3906 81.8281 15.3906C82.0885 15.3906 82.2943 15.4245 82.4453 15.4922L82.4219 16.3438ZM87.0234 24.1562C86.3047 24.1562 85.6536 23.9792 85.0703 23.625C84.4922 23.2708 84.0417 22.7786 83.7188 22.1484C83.3958 21.513 83.2344 20.8021 83.2344 20.0156V19.6797C83.2344 18.8672 83.3906 18.1354 83.7031 17.4844C84.0208 16.8333 84.4609 16.3229 85.0234 15.9531C85.5859 15.5781 86.1953 15.3906 86.8516 15.3906C87.8776 15.3906 88.6901 15.7422 89.2891 16.4453C89.8932 17.1432 90.1953 18.099 90.1953 19.3125V19.8359H84.1641V20.0156C84.1641 20.974 84.4375 21.7734 84.9844 22.4141C85.5365 23.0495 86.2292 23.3672 87.0625 23.3672C87.5625 23.3672 88.0026 23.276 88.3828 23.0938C88.7682 22.9115 89.1172 22.6198 89.4297 22.2188L90.0156 22.6641C89.3281 23.6589 88.3307 24.1562 87.0234 24.1562ZM86.8516 16.1875C86.1484 16.1875 85.5547 16.4453 85.0703 16.9609C84.5911 17.4766 84.2995 18.1693 84.1953 19.0391H89.2656V18.9375C89.2396 18.125 89.0078 17.4635 88.5703 16.9531C88.1328 16.4427 87.5599 16.1875 86.8516 16.1875ZM98.8125 19.8594C98.8125 21.1771 98.5208 22.224 97.9375 23C97.3542 23.7708 96.5729 24.1562 95.5938 24.1562C94.4375 24.1562 93.5521 23.75 92.9375 22.9375V27.25H92.0078V15.5469H92.875L92.9219 16.7422C93.5312 15.8411 94.4141 15.3906 95.5703 15.3906C96.5807 15.3906 97.3724 15.7734 97.9453 16.5391C98.5234 17.3047 98.8125 18.3672 98.8125 19.7266V19.8594ZM97.875 19.6953C97.875 18.6172 97.6536 17.7656 97.2109 17.1406C96.7682 16.5156 96.151 16.2031 95.3594 16.2031C94.7865 16.2031 94.2943 16.3411 93.8828 16.6172C93.4714 16.8932 93.1562 17.2943 92.9375 17.8203V21.875C93.1615 22.3594 93.4818 22.7292 93.8984 22.9844C94.3151 23.2396 94.8073 23.3672 95.375 23.3672C96.1615 23.3672 96.7734 23.0547 97.2109 22.4297C97.6536 21.7995 97.875 20.888 97.875 19.6953ZM100.375 19.6484C100.375 18.8359 100.531 18.1042 100.844 17.4531C101.161 16.8021 101.607 16.2969 102.18 15.9375C102.758 15.5729 103.411 15.3906 104.141 15.3906C105.266 15.3906 106.177 15.7865 106.875 16.5781C107.573 17.3646 107.922 18.4089 107.922 19.7109V19.9062C107.922 20.724 107.763 21.4609 107.445 22.1172C107.133 22.7682 106.69 23.2708 106.117 23.625C105.544 23.9792 104.891 24.1562 104.156 24.1562C103.036 24.1562 102.125 23.763 101.422 22.9766C100.724 22.1849 100.375 21.138 100.375 19.8359V19.6484ZM101.312 19.9062C101.312 20.9167 101.573 21.7474 102.094 22.3984C102.62 23.0443 103.307 23.3672 104.156 23.3672C105 23.3672 105.682 23.0443 106.203 22.3984C106.729 21.7474 106.992 20.8906 106.992 19.8281V19.6484C106.992 19.0026 106.872 18.4115 106.633 17.875C106.393 17.3385 106.057 16.9245 105.625 16.6328C105.193 16.3359 104.698 16.1875 104.141 16.1875C103.307 16.1875 102.628 16.5156 102.102 17.1719C101.576 17.8229 101.312 18.6771 101.312 19.7344V19.9062ZM114.922 21.8516C114.922 21.388 114.734 21.0156 114.359 20.7344C113.99 20.4531 113.43 20.2344 112.68 20.0781C111.93 19.9167 111.346 19.7344 110.93 19.5312C110.518 19.3229 110.211 19.0703 110.008 18.7734C109.81 18.4766 109.711 18.1172 109.711 17.6953C109.711 17.0286 109.99 16.4792 110.547 16.0469C111.104 15.6094 111.818 15.3906 112.688 15.3906C113.63 15.3906 114.385 15.625 114.953 16.0938C115.526 16.5573 115.812 17.1641 115.812 17.9141H114.875C114.875 17.4193 114.667 17.0078 114.25 16.6797C113.839 16.3516 113.318 16.1875 112.688 16.1875C112.073 16.1875 111.578 16.3255 111.203 16.6016C110.833 16.8724 110.648 17.2266 110.648 17.6641C110.648 18.0859 110.802 18.4141 111.109 18.6484C111.422 18.8776 111.987 19.0885 112.805 19.2812C113.628 19.474 114.242 19.6797 114.648 19.8984C115.06 20.1172 115.365 20.3802 115.562 20.6875C115.76 20.9948 115.859 21.3672 115.859 21.8047C115.859 22.5182 115.57 23.0885 114.992 23.5156C114.419 23.9427 113.669 24.1562 112.742 24.1562C111.758 24.1562 110.958 23.9193 110.344 23.4453C109.734 22.9661 109.43 22.362 109.43 21.6328H110.367C110.404 22.1797 110.633 22.6068 111.055 22.9141C111.482 23.2161 112.044 23.3672 112.742 23.3672C113.393 23.3672 113.919 23.224 114.32 22.9375C114.721 22.651 114.922 22.2891 114.922 21.8516ZM119.016 24H118.078V15.5469H119.016V24ZM117.914 13.1016C117.914 12.9245 117.971 12.776 118.086 12.6562C118.201 12.5312 118.357 12.4688 118.555 12.4688C118.753 12.4688 118.909 12.5312 119.023 12.6562C119.143 12.776 119.203 12.9245 119.203 13.1016C119.203 13.2786 119.143 13.4271 119.023 13.5469C118.909 13.6667 118.753 13.7266 118.555 13.7266C118.357 13.7266 118.201 13.6667 118.086 13.5469C117.971 13.4271 117.914 13.2786 117.914 13.1016ZM123.016 13.3828V15.5469H124.766V16.3125H123.016V21.9453C123.016 22.4141 123.099 22.763 123.266 22.9922C123.438 23.2214 123.721 23.3359 124.117 23.3359C124.273 23.3359 124.526 23.3099 124.875 23.2578L124.914 24.0234C124.669 24.112 124.336 24.1562 123.914 24.1562C123.273 24.1562 122.807 23.9714 122.516 23.6016C122.224 23.2266 122.078 22.6771 122.078 21.9531V16.3125H120.523V15.5469H122.078V13.3828H123.016ZM126.031 19.6484C126.031 18.8359 126.188 18.1042 126.5 17.4531C126.818 16.8021 127.263 16.2969 127.836 15.9375C128.414 15.5729 129.068 15.3906 129.797 15.3906C130.922 15.3906 131.833 15.7865 132.531 16.5781C133.229 17.3646 133.578 18.4089 133.578 19.7109V19.9062C133.578 20.724 133.419 21.4609 133.102 22.1172C132.789 22.7682 132.346 23.2708 131.773 23.625C131.201 23.9792 130.547 24.1562 129.812 24.1562C128.693 24.1562 127.781 23.763 127.078 22.9766C126.38 22.1849 126.031 21.138 126.031 19.8359V19.6484ZM126.969 19.9062C126.969 20.9167 127.229 21.7474 127.75 22.3984C128.276 23.0443 128.964 23.3672 129.812 23.3672C130.656 23.3672 131.339 23.0443 131.859 22.3984C132.385 21.7474 132.648 20.8906 132.648 19.8281V19.6484C132.648 19.0026 132.529 18.4115 132.289 17.875C132.049 17.3385 131.714 16.9245 131.281 16.6328C130.849 16.3359 130.354 16.1875 129.797 16.1875C128.964 16.1875 128.284 16.5156 127.758 17.1719C127.232 17.8229 126.969 18.6771 126.969 19.7344V19.9062ZM139.422 16.3438C139.224 16.3073 139.013 16.2891 138.789 16.2891C138.206 16.2891 137.711 16.4531 137.305 16.7812C136.904 17.1042 136.617 17.5755 136.445 18.1953V24H135.516V15.5469H136.43L136.445 16.8906C136.94 15.8906 137.734 15.3906 138.828 15.3906C139.089 15.3906 139.294 15.4245 139.445 15.4922L139.422 16.3438ZM141.953 24H141.016V15.5469H141.953V24ZM140.852 13.1016C140.852 12.9245 140.909 12.776 141.023 12.6562C141.138 12.5312 141.294 12.4688 141.492 12.4688C141.69 12.4688 141.846 12.5312 141.961 12.6562C142.081 12.776 142.141 12.9245 142.141 13.1016C142.141 13.2786 142.081 13.4271 141.961 13.5469C141.846 13.6667 141.69 13.7266 141.492 13.7266C141.294 13.7266 141.138 13.6667 141.023 13.5469C140.909 13.4271 140.852 13.2786 140.852 13.1016ZM147.773 24.1562C147.055 24.1562 146.404 23.9792 145.82 23.625C145.242 23.2708 144.792 22.7786 144.469 22.1484C144.146 21.513 143.984 20.8021 143.984 20.0156V19.6797C143.984 18.8672 144.141 18.1354 144.453 17.4844C144.771 16.8333 145.211 16.3229 145.773 15.9531C146.336 15.5781 146.945 15.3906 147.602 15.3906C148.628 15.3906 149.44 15.7422 150.039 16.4453C150.643 17.1432 150.945 18.099 150.945 19.3125V19.8359H144.914V20.0156C144.914 20.974 145.188 21.7734 145.734 22.4141C146.286 23.0495 146.979 23.3672 147.812 23.3672C148.312 23.3672 148.753 23.276 149.133 23.0938C149.518 22.9115 149.867 22.6198 150.18 22.2188L150.766 22.6641C150.078 23.6589 149.081 24.1562 147.773 24.1562ZM147.602 16.1875C146.898 16.1875 146.305 16.4453 145.82 16.9609C145.341 17.4766 145.049 18.1693 144.945 19.0391H150.016V18.9375C149.99 18.125 149.758 17.4635 149.32 16.9531C148.883 16.4427 148.31 16.1875 147.602 16.1875ZM157.828 21.8516C157.828 21.388 157.641 21.0156 157.266 20.7344C156.896 20.4531 156.336 20.2344 155.586 20.0781C154.836 19.9167 154.253 19.7344 153.836 19.5312C153.424 19.3229 153.117 19.0703 152.914 18.7734C152.716 18.4766 152.617 18.1172 152.617 17.6953C152.617 17.0286 152.896 16.4792 153.453 16.0469C154.01 15.6094 154.724 15.3906 155.594 15.3906C156.536 15.3906 157.292 15.625 157.859 16.0938C158.432 16.5573 158.719 17.1641 158.719 17.9141H157.781C157.781 17.4193 157.573 17.0078 157.156 16.6797C156.745 16.3516 156.224 16.1875 155.594 16.1875C154.979 16.1875 154.484 16.3255 154.109 16.6016C153.74 16.8724 153.555 17.2266 153.555 17.6641C153.555 18.0859 153.708 18.4141 154.016 18.6484C154.328 18.8776 154.893 19.0885 155.711 19.2812C156.534 19.474 157.148 19.6797 157.555 19.8984C157.966 20.1172 158.271 20.3802 158.469 20.6875C158.667 20.9948 158.766 21.3672 158.766 21.8047C158.766 22.5182 158.477 23.0885 157.898 23.5156C157.326 23.9427 156.576 24.1562 155.648 24.1562C154.664 24.1562 153.865 23.9193 153.25 23.4453C152.641 22.9661 152.336 22.362 152.336 21.6328H153.273C153.31 22.1797 153.539 22.6068 153.961 22.9141C154.388 23.2161 154.951 23.3672 155.648 23.3672C156.299 23.3672 156.826 23.224 157.227 22.9375C157.628 22.651 157.828 22.2891 157.828 21.8516Z" fill="black" fill-opacity="0.75"/>
<defs>
<filter id="filter0_d" x="0" y="0" width="177.793" height="40" filterUnits="userSpaceOnUse" color-interpolation-filters="sRGB">
<feFlood flood-opacity="0" result="BackgroundImageFix"/>
<feColorMatrix in="SourceAlpha" type="matrix" values="0 0 0 0 0 0 0 0 0 0 0 0 0 0 0 0 0 0 127 0"/>
<feOffset dx="-1" dy="1"/>
<feGaussianBlur stdDeviation="1"/>
<feColorMatrix type="matrix" values="0 0 0 0 0 0 0 0 0 0 0 0 0 0 0 0 0 0 0.25 0"/>
<feBlend mode="normal" in2="BackgroundImageFix" result="effect1_dropShadow"/>
<feBlend mode="normal" in="SourceGraphic" in2="effect1_dropShadow" result="shape"/>
</filter>
</defs>
</svg>
