<svg width="128" height="24" viewBox="0 0 128 24" fill="none" xmlns="http://www.w3.org/2000/svg">
<g filter="url(#filter0_d)">
<path d="M32.8436 21L3.00001 21L11.0578 10.4L3.00001 1L32.8436 1L32.8436 21Z" fill="#FA8A59"/>
<rect x="32.8436" y="1" width="94.1564" height="20" fill="#FA8A59"/>
</g>
<path d="M23.6953 11.2324H20.1152V15H18.9902V6.46875H24.2754V7.39453H20.1152V10.3125H23.6953V11.2324ZM29.2383 14.373C28.8164 14.8691 28.1973 15.1172 27.3809 15.1172C26.7051 15.1172 26.1895 14.9219 25.834 14.5312C25.4824 14.1367 25.3047 13.5547 25.3008 12.7852V8.66016H26.3848V12.7559C26.3848 13.7168 26.7754 14.1973 27.5566 14.1973C28.3848 14.1973 28.9355 13.8887 29.209 13.2715V8.66016H30.293V15H29.2617L29.2383 14.373ZM33.416 7.125V8.66016H34.5996V9.49805H33.416V13.4297C33.416 13.6836 33.4688 13.875 33.5742 14.0039C33.6797 14.1289 33.8594 14.1914 34.1133 14.1914C34.2383 14.1914 34.4102 14.168 34.6289 14.1211V15C34.3438 15.0781 34.0664 15.1172 33.7969 15.1172C33.3125 15.1172 32.9473 14.9707 32.7012 14.6777C32.4551 14.3848 32.332 13.9688 32.332 13.4297V9.49805H31.1777V8.66016H32.332V7.125H33.416ZM39.7852 14.373C39.3633 14.8691 38.7441 15.1172 37.9277 15.1172C37.252 15.1172 36.7363 14.9219 36.3809 14.5312C36.0293 14.1367 35.8516 13.5547 35.8477 12.7852V8.66016H36.9316V12.7559C36.9316 13.7168 37.3223 14.1973 38.1035 14.1973C38.9316 14.1973 39.4824 13.8887 39.7559 13.2715V8.66016H40.8398V15H39.8086L39.7852 14.373ZM45.5566 9.63281C45.3926 9.60547 45.2148 9.5918 45.0234 9.5918C44.3125 9.5918 43.8301 9.89453 43.5762 10.5V15H42.4922V8.66016H43.5469L43.5645 9.39258C43.9199 8.82617 44.4238 8.54297 45.0762 8.54297C45.2871 8.54297 45.4473 8.57031 45.5566 8.625V9.63281ZM49.0723 15.1172C48.2129 15.1172 47.5137 14.8359 46.9746 14.2734C46.4355 13.707 46.166 12.9512 46.166 12.0059V11.8066C46.166 11.1777 46.2852 10.6172 46.5234 10.125C46.7656 9.62891 47.1016 9.24219 47.5312 8.96484C47.9648 8.68359 48.4336 8.54297 48.9375 8.54297C49.7617 8.54297 50.4023 8.81445 50.8594 9.35742C51.3164 9.90039 51.5449 10.6777 51.5449 11.6895V12.1406H47.25C47.2656 12.7656 47.4473 13.2715 47.7949 13.6582C48.1465 14.041 48.5918 14.2324 49.1309 14.2324C49.5137 14.2324 49.8379 14.1543 50.1035 13.998C50.3691 13.8418 50.6016 13.6348 50.8008 13.377L51.4629 13.8926C50.9316 14.709 50.1348 15.1172 49.0723 15.1172ZM48.9375 9.43359C48.5 9.43359 48.1328 9.59375 47.8359 9.91406C47.5391 10.2305 47.3555 10.6758 47.2852 11.25H50.4609V11.168C50.4297 10.6172 50.2812 10.1914 50.0156 9.89062C49.75 9.58594 49.3906 9.43359 48.9375 9.43359ZM58.8457 9.63281C58.6816 9.60547 58.5039 9.5918 58.3125 9.5918C57.6016 9.5918 57.1191 9.89453 56.8652 10.5V15H55.7812V8.66016H56.8359L56.8535 9.39258C57.209 8.82617 57.7129 8.54297 58.3652 8.54297C58.5762 8.54297 58.7363 8.57031 58.8457 8.625V9.63281ZM62.3613 15.1172C61.502 15.1172 60.8027 14.8359 60.2637 14.2734C59.7246 13.707 59.4551 12.9512 59.4551 12.0059V11.8066C59.4551 11.1777 59.5742 10.6172 59.8125 10.125C60.0547 9.62891 60.3906 9.24219 60.8203 8.96484C61.2539 8.68359 61.7227 8.54297 62.2266 8.54297C63.0508 8.54297 63.6914 8.81445 64.1484 9.35742C64.6055 9.90039 64.834 10.6777 64.834 11.6895V12.1406H60.5391C60.5547 12.7656 60.7363 13.2715 61.084 13.6582C61.4355 14.041 61.8809 14.2324 62.4199 14.2324C62.8027 14.2324 63.127 14.1543 63.3926 13.998C63.6582 13.8418 63.8906 13.6348 64.0898 13.377L64.752 13.8926C64.2207 14.709 63.4238 15.1172 62.3613 15.1172ZM62.2266 9.43359C61.7891 9.43359 61.4219 9.59375 61.125 9.91406C60.8281 10.2305 60.6445 10.6758 60.5742 11.25H63.75V11.168C63.7188 10.6172 63.5703 10.1914 63.3047 9.89062C63.0391 9.58594 62.6797 9.43359 62.2266 9.43359ZM71.4492 11.9004C71.4492 12.8652 71.2285 13.6426 70.7871 14.2324C70.3457 14.8223 69.748 15.1172 68.9941 15.1172C68.2246 15.1172 67.6191 14.873 67.1777 14.3848V17.4375H66.0938V8.66016H67.084L67.1367 9.36328C67.5781 8.81641 68.1914 8.54297 68.9766 8.54297C69.7383 8.54297 70.3398 8.83008 70.7812 9.4043C71.2266 9.97852 71.4492 10.7773 71.4492 11.8008V11.9004ZM70.3652 11.7773C70.3652 11.0625 70.2129 10.498 69.9082 10.084C69.6035 9.66992 69.1855 9.46289 68.6543 9.46289C67.998 9.46289 67.5059 9.75391 67.1777 10.3359V13.3652C67.502 13.9434 67.998 14.2324 68.666 14.2324C69.1855 14.2324 69.5977 14.0273 69.9023 13.6172C70.2109 13.2031 70.3652 12.5898 70.3652 11.7773ZM72.5449 11.7715C72.5449 11.1504 72.666 10.5918 72.9082 10.0957C73.1543 9.59961 73.4941 9.2168 73.9277 8.94727C74.3652 8.67773 74.8633 8.54297 75.4219 8.54297C76.2852 8.54297 76.9824 8.8418 77.5137 9.43945C78.0488 10.0371 78.3164 10.832 78.3164 11.8242V11.9004C78.3164 12.5176 78.1973 13.0723 77.959 13.5645C77.7246 14.0527 77.3867 14.4336 76.9453 14.707C76.5078 14.9805 76.0039 15.1172 75.4336 15.1172C74.5742 15.1172 73.877 14.8184 73.3418 14.2207C72.8105 13.623 72.5449 12.832 72.5449 11.8477V11.7715ZM73.6348 11.9004C73.6348 12.6035 73.7969 13.168 74.1211 13.5938C74.4492 14.0195 74.8867 14.2324 75.4336 14.2324C75.9844 14.2324 76.4219 14.0176 76.7461 13.5879C77.0703 13.1543 77.2324 12.5488 77.2324 11.7715C77.2324 11.0762 77.0664 10.5137 76.7344 10.084C76.4062 9.65039 75.9688 9.43359 75.4219 9.43359C74.8867 9.43359 74.4551 9.64648 74.127 10.0723C73.7988 10.498 73.6348 11.1074 73.6348 11.9004ZM83.3672 13.3184C83.3672 13.0254 83.2559 12.7988 83.0332 12.6387C82.8145 12.4746 82.4297 12.334 81.8789 12.2168C81.332 12.0996 80.8965 11.959 80.5723 11.7949C80.252 11.6309 80.0137 11.4355 79.8574 11.209C79.7051 10.9824 79.6289 10.7129 79.6289 10.4004C79.6289 9.88086 79.8477 9.44141 80.2852 9.08203C80.7266 8.72266 81.2891 8.54297 81.9727 8.54297C82.6914 8.54297 83.2734 8.72852 83.7188 9.09961C84.168 9.4707 84.3926 9.94531 84.3926 10.5234H83.3027C83.3027 10.2266 83.1758 9.9707 82.9219 9.75586C82.6719 9.54102 82.3555 9.43359 81.9727 9.43359C81.5781 9.43359 81.2695 9.51953 81.0469 9.69141C80.8242 9.86328 80.7129 10.0879 80.7129 10.3652C80.7129 10.627 80.8164 10.8242 81.0234 10.957C81.2305 11.0898 81.6035 11.2168 82.1426 11.3379C82.6855 11.459 83.125 11.6035 83.4609 11.7715C83.7969 11.9395 84.0449 12.1426 84.2051 12.3809C84.3691 12.6152 84.4512 12.9023 84.4512 13.2422C84.4512 13.8086 84.2246 14.2637 83.7715 14.6074C83.3184 14.9473 82.7305 15.1172 82.0078 15.1172C81.5 15.1172 81.0508 15.0273 80.6602 14.8477C80.2695 14.668 79.9629 14.418 79.7402 14.0977C79.5215 13.7734 79.4121 13.4238 79.4121 13.0488H80.4961C80.5156 13.4121 80.6602 13.7012 80.9297 13.916C81.2031 14.127 81.5625 14.2324 82.0078 14.2324C82.418 14.2324 82.7461 14.1504 82.9922 13.9863C83.2422 13.8184 83.3672 13.5957 83.3672 13.3184ZM87.041 15H85.957V8.66016H87.041V15ZM85.8691 6.97852C85.8691 6.80273 85.9219 6.6543 86.0273 6.5332C86.1367 6.41211 86.2969 6.35156 86.5078 6.35156C86.7188 6.35156 86.8789 6.41211 86.9883 6.5332C87.0977 6.6543 87.1523 6.80273 87.1523 6.97852C87.1523 7.1543 87.0977 7.30078 86.9883 7.41797C86.8789 7.53516 86.7188 7.59375 86.5078 7.59375C86.2969 7.59375 86.1367 7.53516 86.0273 7.41797C85.9219 7.30078 85.8691 7.1543 85.8691 6.97852ZM90.252 7.125V8.66016H91.4355V9.49805H90.252V13.4297C90.252 13.6836 90.3047 13.875 90.4102 14.0039C90.5156 14.1289 90.6953 14.1914 90.9492 14.1914C91.0742 14.1914 91.2461 14.168 91.4648 14.1211V15C91.1797 15.0781 90.9023 15.1172 90.6328 15.1172C90.1484 15.1172 89.7832 14.9707 89.5371 14.6777C89.291 14.3848 89.168 13.9688 89.168 13.4297V9.49805H88.0137V8.66016H89.168V7.125H90.252ZM92.3027 11.7715C92.3027 11.1504 92.4238 10.5918 92.666 10.0957C92.9121 9.59961 93.252 9.2168 93.6855 8.94727C94.123 8.67773 94.6211 8.54297 95.1797 8.54297C96.043 8.54297 96.7402 8.8418 97.2715 9.43945C97.8066 10.0371 98.0742 10.832 98.0742 11.8242V11.9004C98.0742 12.5176 97.9551 13.0723 97.7168 13.5645C97.4824 14.0527 97.1445 14.4336 96.7031 14.707C96.2656 14.9805 95.7617 15.1172 95.1914 15.1172C94.332 15.1172 93.6348 14.8184 93.0996 14.2207C92.5684 13.623 92.3027 12.832 92.3027 11.8477V11.7715ZM93.3926 11.9004C93.3926 12.6035 93.5547 13.168 93.8789 13.5938C94.207 14.0195 94.6445 14.2324 95.1914 14.2324C95.7422 14.2324 96.1797 14.0176 96.5039 13.5879C96.8281 13.1543 96.9902 12.5488 96.9902 11.7715C96.9902 11.0762 96.8242 10.5137 96.4922 10.084C96.1641 9.65039 95.7266 9.43359 95.1797 9.43359C94.6445 9.43359 94.2129 9.64648 93.8848 10.0723C93.5566 10.498 93.3926 11.1074 93.3926 11.9004ZM102.498 9.63281C102.334 9.60547 102.156 9.5918 101.965 9.5918C101.254 9.5918 100.771 9.89453 100.518 10.5V15H99.4336V8.66016H100.488L100.506 9.39258C100.861 8.82617 101.365 8.54297 102.018 8.54297C102.229 8.54297 102.389 8.57031 102.498 8.625V9.63281ZM104.678 15H103.594V8.66016H104.678V15ZM103.506 6.97852C103.506 6.80273 103.559 6.6543 103.664 6.5332C103.773 6.41211 103.934 6.35156 104.145 6.35156C104.355 6.35156 104.516 6.41211 104.625 6.5332C104.734 6.6543 104.789 6.80273 104.789 6.97852C104.789 7.1543 104.734 7.30078 104.625 7.41797C104.516 7.53516 104.355 7.59375 104.145 7.59375C103.934 7.59375 103.773 7.53516 103.664 7.41797C103.559 7.30078 103.506 7.1543 103.506 6.97852ZM109.049 15.1172C108.189 15.1172 107.49 14.8359 106.951 14.2734C106.412 13.707 106.143 12.9512 106.143 12.0059V11.8066C106.143 11.1777 106.262 10.6172 106.5 10.125C106.742 9.62891 107.078 9.24219 107.508 8.96484C107.941 8.68359 108.41 8.54297 108.914 8.54297C109.738 8.54297 110.379 8.81445 110.836 9.35742C111.293 9.90039 111.521 10.6777 111.521 11.6895V12.1406H107.227C107.242 12.7656 107.424 13.2715 107.771 13.6582C108.123 14.041 108.568 14.2324 109.107 14.2324C109.49 14.2324 109.814 14.1543 110.08 13.998C110.346 13.8418 110.578 13.6348 110.777 13.377L111.439 13.8926C110.908 14.709 110.111 15.1172 109.049 15.1172ZM108.914 9.43359C108.477 9.43359 108.109 9.59375 107.812 9.91406C107.516 10.2305 107.332 10.6758 107.262 11.25H110.438V11.168C110.406 10.6172 110.258 10.1914 109.992 9.89062C109.727 9.58594 109.367 9.43359 108.914 9.43359ZM116.473 13.3184C116.473 13.0254 116.361 12.7988 116.139 12.6387C115.92 12.4746 115.535 12.334 114.984 12.2168C114.438 12.0996 114.002 11.959 113.678 11.7949C113.357 11.6309 113.119 11.4355 112.963 11.209C112.811 10.9824 112.734 10.7129 112.734 10.4004C112.734 9.88086 112.953 9.44141 113.391 9.08203C113.832 8.72266 114.395 8.54297 115.078 8.54297C115.797 8.54297 116.379 8.72852 116.824 9.09961C117.273 9.4707 117.498 9.94531 117.498 10.5234H116.408C116.408 10.2266 116.281 9.9707 116.027 9.75586C115.777 9.54102 115.461 9.43359 115.078 9.43359C114.684 9.43359 114.375 9.51953 114.152 9.69141C113.93 9.86328 113.818 10.0879 113.818 10.3652C113.818 10.627 113.922 10.8242 114.129 10.957C114.336 11.0898 114.709 11.2168 115.248 11.3379C115.791 11.459 116.23 11.6035 116.566 11.7715C116.902 11.9395 117.15 12.1426 117.311 12.3809C117.475 12.6152 117.557 12.9023 117.557 13.2422C117.557 13.8086 117.33 14.2637 116.877 14.6074C116.424 14.9473 115.836 15.1172 115.113 15.1172C114.605 15.1172 114.156 15.0273 113.766 14.8477C113.375 14.668 113.068 14.418 112.846 14.0977C112.627 13.7734 112.518 13.4238 112.518 13.0488H113.602C113.621 13.4121 113.766 13.7012 114.035 13.916C114.309 14.127 114.668 14.2324 115.113 14.2324C115.523 14.2324 115.852 14.1504 116.098 13.9863C116.348 13.8184 116.473 13.5957 116.473 13.3184Z" fill="black" fill-opacity="0.75"/>
<defs>
<filter id="filter0_d" x="0" y="0" width="128" height="24" filterUnits="userSpaceOnUse" color-interpolation-filters="sRGB">
<feFlood flood-opacity="0" result="BackgroundImageFix"/>
<feColorMatrix in="SourceAlpha" type="matrix" values="0 0 0 0 0 0 0 0 0 0 0 0 0 0 0 0 0 0 127 0"/>
<feOffset dx="-1" dy="1"/>
<feGaussianBlur stdDeviation="1"/>
<feColorMatrix type="matrix" values="0 0 0 0 0 0 0 0 0 0 0 0 0 0 0 0 0 0 0.25 0"/>
<feBlend mode="normal" in2="BackgroundImageFix" result="effect1_dropShadow"/>
<feBlend mode="normal" in="SourceGraphic" in2="effect1_dropShadow" result="shape"/>
</filter>
</defs>
</svg>
